<svg width="48" height="48" fill="none" xmlns="http://www.w3.org/2000/svg" id="support-creation-large" data-supported-dps="48x48">
  <path d="M14.889 32h-.44a.729.729 0 01-.25 0c-.79-.29-4.82-1.83-7.53-2.59a.86.86 0 01-.63-.73 2.4 2.4 0 01.37-1.77 1.41 1.41 0 011.19-.58c.238 0 .475.04.7.12.538.213 1.04.506 1.49.87l.19.15 1.25.87c.46.33.87.61 1.16.83l2.92 1.19c.39.18 2 .92 2 1.34 0 .42-1.86.37-2.25.38l-.17-.08z" fill="#9983B1"/>
  <path d="M44.197 44.52a74.559 74.559 0 01-11.84-1.23h-.21a65.995 65.995 0 01-8.77-1.82c-2.56-.77-5.08-1.77-7.52-2.73l-1.09-.43c-2.31-.9-4.19-1.66-5.9-2.39l-.64-.27a23.572 23.572 0 01-3-1.41c-1.33-.78-1.74-1.78-1.19-3v-.09A1.93 1.93 0 016.007 30h.11c.193-.015.387-.015.58 0 2.12.23 8.27 2.57 9.48 3l4 .14h.1l9 .31c-.7-.64-2.45-1.75-6.75-2.86-.82-.21-1.56-.45-1.73-1a2.38 2.38 0 01.78-2.54 3.21 3.21 0 011.88-.42c.768 0 1.534.09 2.28.27.46.12.83.24 1.19.35.934.32 1.9.538 2.88.65a30.6 30.6 0 014.64 1.1c5 1.36 6 3.87 6.59 5.38 0-.09 0 .08 0 0-.19-.62 0-.16.1-.39l.14-.2h.34c.143.01.287.01.43 0 .86 0 2.5-.09 2.51-.09a.85.85 0 01.85.63c1.71 6.23-.64 9.69-.74 9.83a.64.64 0 01-.48.33l.01.03z" fill="#BBA9D1"/>
  <path fill-rule="evenodd" clip-rule="evenodd" d="M16.22 11.35a5 5 0 00-7.13-.09l-.09.09a5.24 5.24 0 000 7.34l7.79 7.9 7.8-7.9c2-2.038 2-5.302 0-7.34a5.06 5.06 0 00-3.61-1.53 5 5 0 00-3.6 1.53l-.57.58-.59-.58z" fill="#DF704D"/>
  <path clip-rule="evenodd" d="M45.147 34.32c.358.277 1.743 2.502 1.483 5.05-.26 2.55-1.87 4.89-2.28 5.291-.411.4-15.188-1.486-18.65-2.162-3.462-.676-20.15-8.073-20.793-8.454-.642-.381-.7-3.124 1.134-3.693 1.835-.569 5.855 2.149 9.526 2.749 3.67.6 10.2.944 12.681.944s-2.681-2.162-3.895-2.643c-1.214-.481-3.203-.875-3.616-2.162-.413-1.287.926-2.24 2.026-2.24.733 0 2.695.494 5.885 1.483 3.138 0 5.737.448 7.797 1.343a9.199 9.199 0 014.68 4.495c.342.724 3.663-.276 4.022 0z" stroke="#493D57" stroke-width="2"/>
  <path d="M6.838 30.17C5.906 28.144 7.055 27 8.416 27c1.362 0 2.4 1.483 4.367 2.826 1.312.896 3.61 2.187 6.895 3.875" stroke="#493D57" stroke-width="2"/>
  <path clip-rule="evenodd" d="M16.156 10.63a5.466 5.466 0 00-7.731.056c-2.132 2.15-2.171 5.635-.089 7.835L16.77 27l8.433-8.49a5.629 5.629 0 001.52-4.86 5.574 5.574 0 00-3.01-4.084A5.258 5.258 0 0021.292 9a5.454 5.454 0 00-3.88 1.653l-.643.611-.614-.634z" stroke="#77280C" stroke-width="2" stroke-linecap="round" stroke-linejoin="round"/>
</svg>
