<svg id="Layer_1" xmlns="http://www.w3.org/2000/svg" width="230" height="230" viewBox="0 0 230 140" data-supported-dps="230x230">
  <defs>
    <clipPath id="add-media-clip-path">
      <path transform="rotate(-15 71.008 69.736)" fill="none" d="M48.33 46.03h46v48h-46z"/>
    </clipPath>
    <style>
      .cls-2{fill:#9bdaf3}.cls-3{fill:#00a0dc}.cls-6{fill:#005e93}
    </style>
  </defs>
  <path class="cls-2" d="M141.67 40.9l-10.14 37.84a19.88 19.88 0 013.41 10l38.74 10.38 12.42-46.31zM97.77 79.87l-10.44-39L42.9 52.81l12.42 46.36 39.75-10.65a19.85 19.85 0 012.7-8.65z"/>
  <circle class="cls-3" cx="77.95" cy="59.98" r="4" transform="rotate(-15 77.954 59.989)"/>
  <g clip-path="url(#add-media-clip-path)">
    <path d="M49.25 84.23l10-14.85A2 2 0 0162 68.8l16.6 10.27a2 2 0 002.7-.57l3-4.44a2 2 0 012.72-.56l13.33 8.42" stroke="#00a0dc" stroke-miterlimit="10" stroke-width="3" fill="none"/>
  </g>
  <path class="cls-3" d="M158.08 73.21a5 5 0 002.29 4l7.28 4.69a5 5 0 012 5.38L169 89.6l-30.91-8.28.61-2.32a5 5 0 014.38-3.69l8.65-.42a5 5 0 004-2.35m5.82-1.54l-7.73-2-.4 1.49a2 2 0 01-1.84 1.48l-8.71.42a8 8 0 00-7.08 5.9l-1.39 5.18 36.71 9.84 1.39-5.18a8 8 0 00-3.18-8.65L162 74.72a2 2 0 01-.85-2.2l.4-1.49z"/>
  <path class="cls-3" d="M160.26 54.34a6 6 0 011.56.21 6 6 0 014.24 7.35l-.47 1.76a9 9 0 01-1.37 2.9l-1.29 1.8a3 3 0 01-3.22 1.15l-3.56-1A3 3 0 01154 66l-.21-2.2a9 9 0 01.26-3.2l.47-1.76a6 6 0 015.79-4.45m0-3a9 9 0 00-8.73 6.61l-.47 1.76a12 12 0 00-.35 4.27l.21 2.2a6 6 0 004.42 5.21l3.56 1a6 6 0 006.43-2.31l1.29-1.8a12 12 0 001.83-3.87l.5-1.79a9 9 0 00-6.36-11 9 9 0 00-2.34-.31z"/>
  <path class="cls-6" d="M115 73a17 17 0 11-17 17 17 17 0 0117-17m0-3a20 20 0 1020 20 20 20 0 00-20-20z"/>
  <path class="cls-6" d="M191.52 48l-52.16-14a2 2 0 00-2.45 1.41l-10.26 38.36a20.1 20.1 0 012.53 2.14l10.36-38.68 50.23 13.46-14 52.16-40.89-11a19.86 19.86 0 01-.52 3L176 106a2 2 0 002.45-1.41l14.49-54.09a2 2 0 00-1.42-2.5zM95.08 91.62L53.2 102.84l-14-52.16 50.25-13.45L100 76.75a20.09 20.09 0 012.47-2.36L92.09 35.48a2 2 0 00-2.45-1.41L37.48 48a2 2 0 00-1.41 2.45l14.49 54.09A2 2 0 0053 106l42.55-11.4a19.92 19.92 0 01-.47-2.98z"/>
  <path class="cls-3" d="M124 88h-7v-7h-4v7h-7v4h7v7h4v-7h7v-4z"/>
</svg>
